<?xml version="1.0" encoding="utf-8"?>
<!-- Generator: Adobe Illustrator 18.0.0, SVG Export Plug-In . SVG Version: 6.00 Build 0)  -->
<!DOCTYPE svg PUBLIC "-//W3C//DTD SVG 1.1//EN" "http://www.w3.org/Graphics/SVG/1.1/DTD/svg11.dtd">
<svg version="1.1" id="Layer_1" xmlns="http://www.w3.org/2000/svg" xmlns:xlink="http://www.w3.org/1999/xlink" x="0px" y="0px"
	 viewBox="0 0 1024 1024" enable-background="new 0 0 1024 1024" xml:space="preserve">
<path fill="#39B54A" d="M834.5,1023.3H188.8C85,1023.3,0,938.3,0,834.4V188.8C0,85,85,0,188.8,0h645.6c103.9,0,188.8,85,188.8,188.8
	v645.6C1023.3,938.3,938.3,1023.3,834.5,1023.3z"/>
<g>
	<path fill="#39B54A" stroke="#231F20" stroke-width="11.573" stroke-miterlimit="10" d="M215.5,580.5
		c0.2-115.2,131.7-138.3,283.4-142.5c230.3-6.3,301.1,78.5,294,158.8c-11.5,129-292,270.8-292,270.8S215.2,741.8,215.5,580.5z"/>
	<circle fill="#FFFFFF" stroke="#231F20" stroke-width="9" stroke-miterlimit="10" cx="359.8" cy="639.1" r="77.6"/>
	<circle fill="#231F20" cx="369.5" cy="670.9" r="37.9"/>
	<circle fill="#FFFFFF" stroke="#231F20" stroke-width="9" stroke-miterlimit="10" cx="630.8" cy="652.6" r="77.6"/>
	<circle fill="#231F20" cx="501.1" cy="835.6" r="63.8"/>
	<circle fill="#231F20" cx="611" cy="677" r="37.9"/>
	<polygon fill="#231F20" points="529.8,625.6 462.3,551.5 495.7,540.3 457,484.1 495.1,467.1 535.3,558.7 506.2,560.1 	"/>
	<g>
		<path fill="#231F20" d="M950.4,711.7c-34.3-51.4-75.6-99.8-109.3-136.2c31.9-10.3,82.2-21.9,158.5-29.2
			c-58.2-23-120.9-44.7-170.1-61c27.1-35.2,73.6-78.6,150.7-109.4c-68.3-6.3-145.8,3.7-203.5,14.5c5.3-37,25.8-96.8,95.5-164.7
			c-72.3,22.5-151.8,60.3-205.1,87.8c-6.6-42.7,0.8-98.6,53.8-156c-78,28.7-135.9,89.8-167.2,129.7c-16-38.2-26.4-92.3-12.4-163.1
			c-44.8,56.8-77.7,124.3-98,172.6c-13.6-37.6-24.5-91.3-19.9-163.1c-38.8,65.5-62.5,144.8-75.4,198.9
			c-23.5-26.3-48.7-68-66.3-133.6c-13,61-20.9,122.8-25.5,170.4c-30.4-19-70.6-48.8-119.2-95.7c19.2,55.6,40.1,117.1,57.2,167.7
			c-37.7-14.3-81.9-37-128.1-73.5c30.1,65.7,75.5,138.8,109.6,190.4c-38.2,1.9-88.5-1.7-150.2-19c51.2,47.1,116.3,86.8,165.4,113.4
			c-28,7.4-66.1,15.9-117.6,24.6c65.7,20.5,132,34.9,179.6,43.8c-13.8,5.1-23.7,18.4-23.7,34c0,19.9,16.3,36.3,36.3,36.3h61.9
			c9.7,0,18.6-3.9,25.1-10.2c-69.7-51.3-137.7-121.6-137.5-200.3C215.5,465.3,347,442.2,498.7,438c230.3-6.3,301.1,78.5,294,158.8
			c-5.8,65.6-81.1,134.4-153.8,186.3c6.3,5.2,14.3,8.3,23.1,8.3h61.9c19.9,0,36.3-16.3,36.3-36.3c0-8.8-3.2-16.9-8.4-23.2
			c28.1,5.1,62.8,14.8,104.4,32.4c-24.2-43.8-45.7-74-63-94.6C826.9,667.8,878.5,675.1,950.4,711.7z"/>
	</g>
</g>
<path fill="none" stroke="#231F20" stroke-width="6" stroke-miterlimit="10" d="M441.1,820.5"/>
</svg>
