<?xml version="1.0" encoding="utf-8"?>
<!-- Generator: Adobe Illustrator 18.0.0, SVG Export Plug-In . SVG Version: 6.00 Build 0)  -->
<!DOCTYPE svg PUBLIC "-//W3C//DTD SVG 1.1//EN" "http://www.w3.org/Graphics/SVG/1.1/DTD/svg11.dtd">
<svg version="1.1"
	 id="Layer_1" xmlns:cc="http://creativecommons.org/ns#" xmlns:inkscape="http://www.inkscape.org/namespaces/inkscape" xmlns:dc="http://purl.org/dc/elements/1.1/" xmlns:rdf="http://www.w3.org/1999/02/22-rdf-syntax-ns#" xmlns:sodipodi="http://sodipodi.sourceforge.net/DTD/sodipodi-0.dtd" xmlns:svg="http://www.w3.org/2000/svg" sodipodi:docname="logo (copy 1).svg" inkscape:version="0.92.0 r"
	 xmlns="http://www.w3.org/2000/svg" xmlns:xlink="http://www.w3.org/1999/xlink" x="0px" y="0px" viewBox="439.4 0 1529.5 1530.7"
	 enable-background="new 439.4 0 1529.5 1530.7" xml:space="preserve">
<sodipodi:namedview  pagecolor="#ffffff" inkscape:zoom="0.81738281" inkscape:cy="512" inkscape:cx="288.1147" gridtolerance="10" guidetolerance="10" borderopacity="1" objecttolerance="10" bordercolor="#666666" showgrid="false" id="namedview3805" inkscape:pageopacity="0" inkscape:window-maximized="1" inkscape:window-x="0" inkscape:window-width="1920" inkscape:window-height="1028" inkscape:pageshadow="2" inkscape:window-y="0" inkscape:current-layer="Layer_1">
	</sodipodi:namedview>
<path id="path3780" fill="#39B54A" d="M1686.8,1529.7H721.6c-155.2,0-282.2-127.1-282.2-282.4V282.2C439.4,127.1,566.4,0,721.6,0
	h965.1c155.3,0,282.2,127.1,282.2,282.2v965.1C1969,1402.6,1842,1529.7,1686.8,1529.7z"/>
<path id="path3802" fill="none" stroke="#231F20" stroke-width="6" stroke-miterlimit="10" d="M1098.7,1226.5"/>
<g id="g3825" transform="matrix(31.177618,0,0,31.177618,137.86858,137.86858)">
	<path id="path3811" inkscape:connector-curvature="0" fill="none" d="M16.3,2.2h35.9v35.9H16.3V2.2z"/>
	<path id="path3813" inkscape:connector-curvature="0" fill="#FFFFFF" d="M50.2,30.6L36.6,17c1.3-3.4,0.6-7.5-2.2-10.3
		c-3-3-7.5-3.6-11.1-1.9l6.4,6.4l-4.5,4.5l-6.6-6.4c-1.8,3.6-1,8.1,1.9,11.1c2.8,2.8,6.9,3.6,10.3,2.2l13.6,13.6
		c0.6,0.6,1.5,0.6,2.1,0l3.4-3.4C50.8,32.1,50.8,31,50.2,30.6z"/>
</g>
</svg>
