<?xml version="1.0" encoding="UTF-8" standalone="no"?>
<!-- Generator: Adobe Illustrator 18.0.0, SVG Export Plug-In . SVG Version: 6.00 Build 0)  -->

<svg
   xmlns:dc="http://purl.org/dc/elements/1.1/"
   xmlns:cc="http://creativecommons.org/ns#"
   xmlns:rdf="http://www.w3.org/1999/02/22-rdf-syntax-ns#"
   xmlns:svg="http://www.w3.org/2000/svg"
   xmlns="http://www.w3.org/2000/svg"
   xmlns:sodipodi="http://sodipodi.sourceforge.net/DTD/sodipodi-0.dtd"
   xmlns:inkscape="http://www.inkscape.org/namespaces/inkscape"
   version="1.1"
   id="Layer_1"
   x="0px"
   y="0px"
   viewBox="0 0 1024 1024"
   enable-background="new 0 0 1024 1024"
   xml:space="preserve"
   sodipodi:docname="logo (copy 1).svg"
   inkscape:version="0.92.0 r"><metadata
     id="metadata3809"><rdf:RDF><cc:Work
         rdf:about=""><dc:format>image/svg+xml</dc:format><dc:type
           rdf:resource="http://purl.org/dc/dcmitype/StillImage" /></cc:Work></rdf:RDF></metadata><defs
     id="defs3807" /><sodipodi:namedview
     pagecolor="#ffffff"
     bordercolor="#666666"
     borderopacity="1"
     objecttolerance="10"
     gridtolerance="10"
     guidetolerance="10"
     inkscape:pageopacity="0"
     inkscape:pageshadow="2"
     inkscape:window-width="1920"
     inkscape:window-height="1028"
     id="namedview3805"
     showgrid="false"
     inkscape:zoom="0.81738281"
     inkscape:cx="288.1147"
     inkscape:cy="512"
     inkscape:window-x="0"
     inkscape:window-y="0"
     inkscape:window-maximized="1"
     inkscape:current-layer="Layer_1" /><path
     fill="#39B54A"
     d="M834.5,1023.3H188.8C85,1023.3,0,938.3,0,834.4V188.8C0,85,85,0,188.8,0h645.6c103.9,0,188.8,85,188.8,188.8  v645.6C1023.3,938.3,938.3,1023.3,834.5,1023.3z"
     id="path3780" /><path
     fill="none"
     stroke="#231F20"
     stroke-width="6"
     stroke-miterlimit="10"
     d="M441.1,820.5"
     id="path3802" /><g
     style="fill:#000000"
     id="g3825"
     transform="matrix(31.177618,0,0,31.177618,137.86858,137.86858)"><path
       id="path3811"
       d="M 0,0 H 24 V 24 H 0 Z"
       inkscape:connector-curvature="0"
       style="clip-rule:evenodd;fill:none" /><path
       id="path3813"
       d="M 22.7,19 13.6,9.9 C 14.5,7.6 14,4.9 12.1,3 10.1,1 7.1,0.6 4.7,1.7 L 9,6 6,9 1.6,4.7 c -1.2,2.4 -0.7,5.4 1.3,7.4 1.9,1.9 4.6,2.4 6.9,1.5 l 9.1,9.1 c 0.4,0.4 1,0.4 1.4,0 l 2.3,-2.3 C 23.1,20 23.1,19.3 22.7,19 Z"
       inkscape:connector-curvature="0"
       style="fill:#000000;fill-opacity:1" /></g></svg>