<?xml version="1.0" encoding="utf-8"?>
<!-- Generator: Adobe Illustrator 18.0.0, SVG Export Plug-In . SVG Version: 6.00 Build 0)  -->
<!DOCTYPE svg PUBLIC "-//W3C//DTD SVG 1.1//EN" "http://www.w3.org/Graphics/SVG/1.1/DTD/svg11.dtd">
<svg version="1.1" id="Layer_1" xmlns="http://www.w3.org/2000/svg" xmlns:xlink="http://www.w3.org/1999/xlink" x="0px" y="0px"
	 viewBox="0 0 1024 1024" enable-background="new 0 0 1024 1024" xml:space="preserve">
<path fill="#39B54A" d="M834.5,1023.3H188.8C85,1023.3,0,938.3,0,834.4V188.8C0,85,85,0,188.8,0h645.6c103.9,0,188.8,85,188.8,188.8
	v645.6C1023.3,938.3,938.3,1023.3,834.5,1023.3z"/>
<path fill="none" stroke="#231F20" stroke-width="6" stroke-miterlimit="10" d="M441.1,820.5"/>
<g>
	<path fill="#FFFFFF" d="M938,388.6c-10.9-4.2-44.8-7.9-65.2-7.9c-2.9,0-5.8,0.1-8.7,0.2c-10.2-14.8-23.6-27.8-39-38
		c-12.6-8.4-26.4-14.9-40.9-19.3c-37.3-43.5-73.3-108.1-119.9-130.2c3.9,10.9,5.7,33.1,0.3,54.7c-34.6-35.4-67.8-82.8-165.8-92.1
		c7.6,15.6,6.7,51.6,0.9,68.9c-49.9-38.4-105.3-56.3-186.3-52.2c23.9,24.8,35.5,57,39.5,88.3c-66.3-26.4-139.6-30.6-205,3.5
		c43.5,17,69.4,48.7,78.1,75.9c-69.8-3.7-134.1,26.1-168.3,88.2c36-2.2,71.5,6.9,96.1,33.3c-45.2,11.8-87.5,60.4-97.5,137.9
		c22.4-22.3,58.3-24.9,80.7-17.6c-22.4,28-38.4,74-15.6,139.2c15.4-17.5,20.8-30.1,47.1-44.6c-2.4,27.8,3.8,49.5,30.5,88
		c20.1,29,76.9,65.6,101.1,67.7c1.1,0.5,3.8,3.9,5.5,6.1c8.4,10.6,22.4,28.4,60.4,28.4c9.5,0,20.3-1.1,32.1-3.3
		c35.8-6.6,43.4-30.4,47-41.9c0.1-0.4,0.3-0.9,0.5-1.4c16.6-4.9,76.7-13.4,97.5-16.4l8.9-1.3c5.1-0.8,7.4,0.9,15.2,7.4
		c5.1,4.3,11.2,9.4,19.5,13.4c8.3,4,18.8,7,32.7,7c12.1,0,25.6-2.2,41.3-6.7c41-11.8,41.7-36.4,42.1-52.7
		c0.3-11.1,0.9-14.2,5.7-17.4c48.9-32.6,73.6-67,85.7-90.1c0.3-0.6,28.2-56.2,20.9-90.5c11.8-5.5,23.6-11.6,35.2-18.2
		c15.3-8.9,29.9-18.4,43.2-28.5c42-31.6,70.3-69.4,73.1-98.5C968.7,407.9,953.2,394.5,938,388.6z M876.7,504
		c-12.4,9.4-26,18.3-40.4,26.6c-13.9,8-28.2,15.2-42.3,21.2c-5.4,2.3-10.8,4.4-15.9,6.3c-13.5,4.4-27.6,6.6-42.1,6.6
		c-9.6,0-19.1-1-28.3-2.9c-7-1.5-14.1,2.6-16.3,9.4c-2.2,6.8,1,14.3,7.6,17.2c13,5.9,18.7,7.3,34.1,8.8c4.7,0.5,9.4,0.7,13.9,0.7
		c18.3,0,31.7-3.7,41.2-7.6c-1.4,16.8-9.6,42.7-18.9,60.4c-10.6,20.2-32.4,50.4-76.4,79.7c-17.5,11.7-17.9,28.8-18.2,40.1
		c-0.4,13.9-0.6,20.3-21.7,26.4c-12.9,3.7-24.2,5.6-33.5,5.6c-17.7,0-25.3-6.4-34.1-13.8c-7.5-6.3-16.9-14.2-31.3-14.2
		c-2,0-4,0.2-6,0.4l-8.9,1.3c-60.8,8.6-98.1,14.7-109.1,20.1c-7.5,3.7-9.9,11.2-11.8,17.1c-3.1,9.8-6,19.1-25.2,22.7
		c-10.1,1.8-19.2,2.8-26.9,2.8c-24.3,0-31.1-8.6-38.2-17.7c-5.5-7-12.3-15.7-25.3-16.8c-15.6-1.3-30.1-9.6-51.3-24.5
		c-11.2-7.9-23.5-20.6-27.8-26.7c4.8-8.8,7.7-13.7,11.2-20.8c18.4-37.2,23.3-49.6,99.3-70c8-2.2,15.6-3.8,23-5.5
		c36.4-8.1,68-15,80.5-68c8.5-3.5,17.7-5,29.2-5c7,0,14,0.5,21.4,1.1c7.6,0.6,15.4,1.2,23.4,1.2c30.4,0,66-8.2,100.2-68.9
		c2.9-4.3,6.8-12,3.6-19.7c-2.8-6.8-10.3-10.3-17.3-8.1c-7.7,2.4-15.8,3.6-24.1,3.6c-39.3,0-63.6-32.4-63.6-62.4
		c0-31.6,30.8-57.4,68.6-57.4c15.9,0,31.5,4.7,43.7,13.2c5.8,4,13.6,3.2,18.4-2c23.5-25.4,58.2-40,95.1-40
		c26.7,0,52.2,7.5,73.6,21.8c14.5,9.6,26.7,22.2,35.2,36.5c2.8,4.7,8.1,7.3,13.5,6.8c9.4-1,26.8-0.9,36-0.1
		c-3.7,3.7-8.2,10.6-8.6,18c-0.9,20.7,12.6,33,33.3,36.2C908.9,476.5,894.8,490.3,876.7,504z"/>
	<path fill="#FFFFFF" d="M740.5,392.1c-21.1,0-38.2,15-38.2,33.5c0,18.5,17.1,33.5,38.2,33.5c1.2,0,2.5,0,3.7-0.1l0,0
		c10.7-0.9,20.1-5.7,26.4-12.8c2.7-3,4.9-6.5,6.2-10.3h0c1.2-3.2,1.8-6.7,1.8-10.3c0-2.8-0.4-5.6-1.2-8.2
		C773.4,402.9,758.4,392.1,740.5,392.1z"/>
</g>
</svg>
