<?xml version="1.0" encoding="utf-8"?>
<!-- Generator: Adobe Illustrator 16.0.0, SVG Export Plug-In . SVG Version: 6.00 Build 0)  -->
<!DOCTYPE svg PUBLIC "-//W3C//DTD SVG 1.1//EN" "http://www.w3.org/Graphics/SVG/1.1/DTD/svg11.dtd">
<svg version="1.1" id="Ebene_1" xmlns="http://www.w3.org/2000/svg" xmlns:xlink="http://www.w3.org/1999/xlink" x="0px" y="0px"
	 width="783.333px" height="446.667px" viewBox="0 0 783.333 446.667" enable-background="new 0 0 783.333 446.667"
	 xml:space="preserve">
<g>
	<path fill="#63BF30" d="M476.326,153.653c-2.421-0.928-9.909-1.747-14.428-1.747c-0.639,0-1.282,0.017-1.919,0.048
		c-2.266-3.268-5.227-6.154-8.637-8.424c-2.797-1.855-5.838-3.292-9.052-4.277c-8.26-9.64-16.223-23.931-26.554-28.817
		c0.87,2.41,1.262,7.335,0.071,12.116c-7.666-7.838-15.008-18.325-36.709-20.386c1.69,3.443,1.489,11.421,0.194,15.243
		c-11.044-8.505-23.312-12.465-41.254-11.546c5.282,5.483,7.863,12.619,8.755,19.552c-14.681-5.85-30.899-6.785-45.378,0.783
		c9.64,3.764,15.361,10.783,17.298,16.802c-15.456-0.818-29.678,5.788-37.263,19.53c7.976-0.484,15.825,1.529,21.283,7.363
		c-10.001,2.613-19.365,13.363-21.576,30.533c4.967-4.944,12.915-5.519,17.876-3.885c-4.961,6.205-8.509,16.388-3.452,30.826
		c3.399-3.872,4.597-6.665,10.423-9.877c-0.526,6.145,0.848,10.961,6.762,19.49c4.452,6.422,17.018,14.521,22.382,14.979
		c0.238,0.108,0.832,0.857,1.221,1.355c1.857,2.355,4.964,6.298,13.365,6.298c2.101,0,4.487-0.246,7.097-0.726
		c7.935-1.467,9.6-6.74,10.396-9.275c0.031-0.098,0.066-0.207,0.102-0.317c3.673-1.088,16.977-2.975,21.578-3.626l1.974-0.279
		c1.123-0.166,1.64,0.197,3.362,1.641c1.136,0.95,2.478,2.075,4.308,2.964c1.833,0.889,4.158,1.54,7.247,1.54
		c2.683-0.004,5.673-0.488,9.145-1.483c9.081-2.604,9.23-8.059,9.328-11.67c0.064-2.452,0.198-3.155,1.258-3.86
		c10.831-7.227,16.298-14.838,18.977-19.951c0.068-0.136,6.237-12.439,4.626-20.032c2.619-1.208,5.234-2.561,7.8-4.039
		c3.397-1.958,6.622-4.083,9.574-6.313c9.305-7.003,15.562-15.355,16.191-21.814C483.131,157.928,479.69,154.941,476.326,153.653z
		 M462.753,179.203c-2.75,2.075-5.757,4.056-8.939,5.889c-3.082,1.778-6.238,3.362-9.376,4.702
		c-1.203,0.512-2.384,0.979-3.511,1.393c-2.984,0.971-6.119,1.462-9.325,1.462c-2.127,0-4.238-0.218-6.27-0.651
		c-1.557-0.332-3.117,0.568-3.612,2.081c-0.493,1.514,0.228,3.16,1.682,3.815c2.87,1.298,4.143,1.626,7.558,1.95
		c1.046,0.101,2.078,0.152,3.072,0.152c4.048,0,7.026-0.815,9.125-1.689c-0.316,3.712-2.134,9.461-4.177,13.368
		c-2.343,4.469-7.178,11.157-16.911,17.649c-3.865,2.579-3.965,6.376-4.035,8.886c-0.082,3.089-0.123,4.497-4.813,5.843
		c-2.862,0.823-5.357,1.236-7.42,1.24c-3.911,0-5.596-1.412-7.547-3.046c-1.664-1.397-3.737-3.135-6.926-3.135
		c-0.434,0-0.876,0.035-1.328,0.096l-1.961,0.282c-13.45,1.907-21.718,3.247-24.155,4.453c-1.668,0.824-2.188,2.469-2.605,3.792
		c-0.685,2.176-1.333,4.229-5.58,5.014c-2.234,0.412-4.242,0.623-5.962,0.623c-5.373,0-6.875-1.902-8.461-3.918
		c-1.217-1.545-2.73-3.469-5.602-3.711c-3.463-0.294-6.656-2.123-11.363-5.432c-2.489-1.75-5.194-4.557-6.145-5.923
		c1.057-1.949,1.697-3.034,2.478-4.604c4.075-8.24,5.157-10.989,21.977-15.498c1.778-0.475,3.458-0.849,5.084-1.208
		c8.053-1.783,15.046-3.33,17.822-15.059c1.874-0.77,3.929-1.117,6.466-1.117c1.541,0,3.095,0.121,4.733,0.246
		c1.677,0.132,3.406,0.264,5.169,0.264c6.728,0,14.619-1.815,22.181-15.258c0.652-0.956,1.498-2.66,0.798-4.371
		c-0.613-1.506-2.282-2.286-3.831-1.795c-1.695,0.539-3.49,0.807-5.334,0.807c-8.7,0-14.085-7.166-14.085-13.808
		c0-7.004,6.811-12.701,15.188-12.701c3.528,0,6.965,1.037,9.673,2.925c1.281,0.888,3.016,0.697,4.071-0.445
		c5.211-5.63,12.881-8.86,21.046-8.86c5.92,0,11.552,1.666,16.286,4.82c3.213,2.129,5.911,4.925,7.803,8.08
		c0.623,1.033,1.784,1.619,2.984,1.498c2.091-0.211,5.93-0.199,7.964-0.02c-0.812,0.829-1.823,2.336-1.899,3.988
		c-0.21,4.582,2.784,7.316,7.379,8.015C469.884,173.101,466.775,176.169,462.753,179.203z"/>
	<path fill="#63BF30" d="M432.616,154.423c-4.665,0-8.449,3.32-8.449,7.412c0,4.094,3.784,7.413,8.449,7.413
		c0.275,0,0.548-0.01,0.818-0.03l0.005-0.004c2.367-0.201,4.455-1.264,5.841-2.824c0.604-0.675,1.075-1.443,1.377-2.276h0.006
		c0.262-0.716,0.402-1.484,0.402-2.278c0-0.628-0.087-1.232-0.255-1.815C439.885,156.803,436.565,154.423,432.616,154.423z"/>
</g>
<g>
	<path fill="#63BF30" d="M138.645,300.208h-28.98v26.345c3.511,1.406,5.928,2.855,7.245,4.347l-1.317,10.934H84.77L83.451,330.9
		c1.141-1.491,3.557-2.94,7.246-4.347v-60.196c-3.603-1.317-6.016-2.81-7.246-4.48l1.318-10.931h30.823l1.317,10.931
		c-1.406,1.671-3.82,3.163-7.245,4.48v20.68h28.98v-20.68c-3.603-1.317-6.017-2.81-7.245-4.48l1.316-10.931h30.824l1.317,10.931
		c-1.406,1.671-3.82,3.163-7.245,4.48v60.196c3.511,1.406,5.928,2.855,7.245,4.347l-1.317,10.934h-30.824l-1.316-10.934
		c1.139-1.491,3.557-2.94,7.245-4.347V300.208z"/>
	<path fill="#63BF30" d="M204.108,342.886c-10.537,0-18.462-2.809-23.775-8.43c-5.314-5.617-7.969-13.786-7.969-24.5
		c0-6.497,0.921-12.095,2.765-16.794c1.845-4.697,4.347-8.319,7.509-10.869c6.146-4.915,13.304-7.376,21.47-7.376
		c8.167,0,14.424,2.088,18.771,6.257c4.347,4.174,6.521,11.658,6.521,22.46c0,6.322-3.119,9.484-9.353,9.484h-28.584
		c0.351,5.533,1.779,9.44,4.282,11.724c2.502,2.283,6.475,3.424,11.92,3.424c2.986,0,5.838-0.351,8.563-1.054
		c2.721-0.701,4.695-1.404,5.927-2.107l1.844-1.054l3.952,10.536c-0.526,0.616-1.297,1.385-2.306,2.308
		c-1.01,0.921-3.555,2.15-7.639,3.688C213.922,342.117,209.289,342.886,204.108,342.886z M212.406,301.395
		c0.177-1.229,0.264-2.72,0.264-4.479c0-1.755-0.704-3.62-2.107-5.598c-1.406-1.976-3.842-2.964-7.31-2.964
		c-3.471,0-6.126,1.054-7.969,3.161c-1.845,2.107-3.075,5.664-3.689,10.672L212.406,301.395z"/>
	<path fill="#63BF30" d="M270.364,248.31c5.006-1.14,9.792-1.712,14.359-1.712c4.562,0,8.473,0.133,11.722,0.394v79.036
		c2.635,0.439,5.049,1.185,7.243,2.238v10.406c-5.268,2.812-11.942,4.214-20.02,4.214c-0.879-0.44-1.735-1.228-2.569-2.371
		c-0.836-1.14-1.297-2.238-1.384-3.292c-1.931,1.581-4.436,2.92-7.508,4.019c-3.075,1.097-6.104,1.645-9.089,1.645
		c-9.484,0-16.356-2.568-20.615-7.706c-4.261-5.135-6.389-13.543-6.389-25.224c0-13.259,3.248-22.566,9.749-27.924
		c5.707-4.744,12.731-7.115,21.076-7.115c3.688,0,7.376,0.441,11.065,1.318v-13.042c-4.042-1.139-7.026-2.72-8.959-4.741
		L270.364,248.31z M265.885,329.452c5.006,0,9.044-1.492,12.119-4.479v-35.3c-3.602-0.879-7.422-1.318-11.46-1.318
		c-4.04,0-6.961,1.778-8.76,5.334c-1.801,3.557-2.701,8.873-2.701,15.938c0,7.07,0.877,12.143,2.635,15.216
		C259.475,327.916,262.196,329.452,265.885,329.452z"/>
	<path fill="#63BF30" d="M339.518,355.794c7.814,0,11.723-4.696,11.723-14.093v-5.797c-4.305,2.636-9.705,3.954-16.202,3.954
		c-8.255,0-14.602-2.415-19.034-7.246c-4.436-4.829-6.652-12.863-6.652-24.106c0-22.391,10.274-33.589,30.823-33.589
		c5.27,0,10.186,1.143,14.753,3.426c0.876-1.579,2.194-2.372,3.951-2.372h10.803v64.809c0,9.658-2.395,16.816-7.181,21.471
		c-4.786,4.654-12.186,6.981-22.195,6.981c-5.269,0-10.716-0.616-16.334-1.845c-5.621-1.229-9.878-2.764-12.777-4.61
		c-0.088-0.789-0.131-1.58-0.131-2.37c0-4.831,1.141-9.484,3.425-13.963h11.591c0.966,1.845,1.667,4.301,2.107,7.376
		C331.525,355.137,335.303,355.794,339.518,355.794z M330.23,321.548c1.799,2.634,4.875,3.951,9.221,3.951
		c4.348,0,8.276-1.228,11.79-3.688v-31.219c-3.514-1.492-7.333-2.239-11.46-2.239c-8.167,0-12.25,6.456-12.25,19.363
		C327.53,314.303,328.429,318.915,330.23,321.548z"/>
	<path fill="#63BF30" d="M411.304,342.886c-10.538,0-18.463-2.809-23.775-8.43c-5.314-5.617-7.969-13.786-7.969-24.5
		c0-6.497,0.921-12.095,2.766-16.794c1.845-4.697,4.347-8.319,7.51-10.869c6.146-4.915,13.304-7.376,21.469-7.376
		c8.168,0,14.425,2.088,18.771,6.257c4.347,4.174,6.522,11.658,6.522,22.46c0,6.322-3.119,9.484-9.354,9.484h-28.583
		c0.35,5.533,1.779,9.44,4.282,11.724c2.501,2.283,6.474,3.424,11.919,3.424c2.985,0,5.84-0.351,8.562-1.054
		c2.721-0.701,4.698-1.404,5.928-2.107l1.846-1.054l3.949,10.536c-0.524,0.616-1.295,1.385-2.303,2.308
		c-1.012,0.921-3.557,2.15-7.642,3.688C421.118,342.117,416.483,342.886,411.304,342.886z M419.604,301.395
		c0.177-1.229,0.263-2.72,0.263-4.479c0-1.755-0.703-3.62-2.108-5.598c-1.403-1.976-3.842-2.964-7.31-2.964
		c-3.471,0-6.126,1.054-7.97,3.161c-1.845,2.107-3.074,5.664-3.688,10.672L419.604,301.395z"/>
	<path fill="#63BF30" d="M443.048,248.31c4.918-1.14,9.484-1.712,13.699-1.712c4.217,0,7.772,0.133,10.669,0.394v32.932
		c2.107-1.401,4.917-2.588,8.432-3.557c3.512-0.965,6.629-1.449,9.352-1.449c8.694,0,14.708,2.108,18.047,6.323
		c3.335,4.217,5.006,10.626,5.006,19.232v26.739c3.423,1.316,5.839,2.812,7.243,4.479l-1.315,10.143h-30.297l-1.319-10.143
		c1.23-1.667,3.645-3.162,7.246-4.479v-26.081c0-4.742-0.77-7.923-2.305-9.55c-1.541-1.626-4.325-2.437-8.365-2.437
		s-7.948,1.404-11.724,4.215v33.853c3.427,1.316,5.842,2.812,7.245,4.479l-1.317,10.143h-30.296l-1.316-10.143
		c1.229-1.667,3.644-3.162,7.244-4.479v-64.281c-3.074-1.055-5.489-2.545-7.244-4.479L443.048,248.31z"/>
	<path fill="#63BF30" d="M550.6,342.886c-10.408,0-18.112-2.765-23.118-8.299c-5.005-5.531-7.507-13.895-7.507-25.092
		c0-11.195,2.785-19.758,8.362-25.685c5.577-5.929,13.588-8.894,24.039-8.894c10.449,0,18.199,2.636,23.249,7.905
		c5.049,5.269,7.575,13.501,7.575,24.698c0,11.196-2.833,19.889-8.496,26.081C569.04,339.792,561.006,342.886,550.6,342.886z
		 M538.941,308.375c0,14.05,4.215,21.076,12.646,21.076c4.302,0,7.485-1.602,9.549-4.807c2.064-3.206,3.096-8.452,3.096-15.742
		c0-13.698-4.304-20.549-12.908-20.549c-4.215,0-7.335,1.516-9.353,4.545C539.951,295.928,538.941,301.087,538.941,308.375z"/>
	<path fill="#63BF30" d="M620.215,355.794c7.814,0,11.722-4.696,11.722-14.093v-5.797c-4.305,2.636-9.703,3.954-16.201,3.954
		c-8.255,0-14.601-2.415-19.033-7.246c-4.436-4.829-6.652-12.863-6.652-24.106c0-22.391,10.274-33.589,30.823-33.589
		c5.27,0,10.185,1.143,14.753,3.426c0.876-1.579,2.192-2.372,3.952-2.372h10.802v64.809c0,9.658-2.396,16.816-7.18,21.471
		c-4.789,4.654-12.185,6.981-22.194,6.981c-5.271,0-10.718-0.616-16.335-1.845c-5.622-1.229-9.877-2.764-12.777-4.61
		c-0.088-0.789-0.133-1.58-0.133-2.37c0-4.831,1.143-9.484,3.426-13.963h11.592c0.966,1.845,1.667,4.301,2.108,7.376
		C612.222,355.137,616,355.794,620.215,355.794z M610.927,321.548c1.801,2.634,4.874,3.951,9.223,3.951
		c4.346,0,8.276-1.228,11.787-3.688v-31.219c-3.511-1.492-7.331-2.239-11.458-2.239c-8.168,0-12.251,6.456-12.251,19.363
		C608.228,314.303,609.126,318.915,610.927,321.548z"/>
</g>
</svg>
